<?xml version="1.0" standalone="no"?>
<!DOCTYPE svg PUBLIC "-//W3C//DTD SVG 20010904//EN"
 "http://www.w3.org/TR/2001/REC-SVG-20010904/DTD/svg10.dtd">
<svg version="1.0" xmlns="http://www.w3.org/2000/svg"
 width="512.000000pt" height="512.000000pt" viewBox="0 0 512.000000 512.000000"
 preserveAspectRatio="xMidYMid meet">

<g transform="translate(0.000000,512.000000) scale(0.100000,-0.100000)"
fill="#000000" stroke="none">
<path d="M2390 4953 c-300 -23 -589 -100 -857 -228 -254 -121 -466 -270 -657
-459 -203 -202 -340 -393 -467 -651 -118 -242 -184 -455 -226 -725 -24 -159
-24 -501 0 -660 39 -254 107 -475 212 -697 121 -254 270 -466 459 -657 200
-202 394 -340 651 -467 344 -168 669 -243 1055 -243 386 0 715 76 1055 243
485 239 856 608 1090 1086 115 233 180 431 219 665 128 767 -120 1544 -670
2094 -298 298 -690 523 -1087 625 -256 66 -537 93 -777 74z m1386 -1130 c56
-30 109 -94 123 -148 7 -26 11 -148 11 -305 0 -246 -1 -262 -17 -255 -149 63
-298 95 -447 95 -269 0 -494 -91 -688 -278 -280 -270 -394 -649 -303 -1007 53
-211 170 -389 358 -546 l58 -49 -958 0 c-650 0 -970 4 -997 11 -21 6 -58 29
-82 51 -79 73 -75 16 -72 983 l3 860 22 41 c30 56 94 109 150 124 36 11 201
12 800 7 619 -5 761 -4 787 7 18 7 108 93 206 194 173 179 222 219 290 233 19
4 188 7 375 6 330 -2 341 -3 381 -24z m-1191 -183 l-109 -110 -783 -2 -783 -3
0 93 c0 148 -110 132 912 132 l873 0 -110 -110z m1080 -575 c153 -39 293 -117
413 -230 93 -88 146 -160 198 -268 163 -346 77 -786 -207 -1052 -170 -160
-370 -236 -619 -236 -437 0 -810 317 -886 753 -21 118 -14 281 16 388 111 398
506 683 920 665 58 -2 132 -11 165 -20z"/>
<path d="M3282 2799 c-62 -31 -95 -85 -100 -164 l-4 -62 -102 -5 c-117 -5
-155 -21 -180 -72 -15 -32 -16 -76 -14 -397 l3 -361 37 -34 38 -34 490 0 c539
0 534 -1 565 60 22 42 22 727 1 769 -26 50 -59 63 -170 68 l-102 6 -11 68
c-12 81 -44 129 -103 159 -33 17 -59 20 -172 20 -116 0 -139 -3 -176 -21z
m303 -124 c18 -18 25 -35 25 -65 l0 -40 -155 0 -155 0 0 40 c0 30 7 47 25 65
23 23 31 25 130 25 99 0 107 -2 130 -25z m325 -300 l0 -65 -455 0 -455 0 0 58
c0 32 3 62 7 65 3 4 208 7 455 7 l448 0 0 -65z m0 -390 l0 -195 -452 2 -453 3
-3 193 -2 192 455 0 455 0 0 -195z"/>
</g>
</svg>
